<svg xmlns="http://www.w3.org/2000/svg" width="220" height="26" fill="none"><g fill="#fff"><path d="M6.715 25.517 0 .454h4.406l5.158 19.253 5.53-19.25h4.1l5.55 19.35L29.933.46h4.405L27.62 25.517h-5.107L17.15 6.79l-5.37 18.727H6.716ZM37.382.47h4.194v25.04h-4.194V.47ZM50.536 21.573h10.208V25.5H46.43V.47h4.106v21.103ZM73.641.497a11.22 11.22 0 0 1 4.661.878 11.34 11.34 0 0 1 3.9 2.731 12.356 12.356 0 0 1 2.607 4.095 12.47 12.47 0 0 1 .838 4.798 12.568 12.568 0 0 1-.843 4.794 12.452 12.452 0 0 1-2.597 4.098 11.34 11.34 0 0 1-3.9 2.731 11.22 11.22 0 0 1-4.66.879h-9.864V.47h9.861l-.003.026Zm0 21.107a7.335 7.335 0 0 0 3.141-.571 7.415 7.415 0 0 0 2.614-1.855 8.726 8.726 0 0 0 2.256-6.15 8.663 8.663 0 0 0-.524-3.302 8.586 8.586 0 0 0-1.732-2.848 7.499 7.499 0 0 0-2.617-1.846 7.419 7.419 0 0 0-3.138-.579h-5.726v17.155l5.726-.005ZM107.765 18.35a6.67 6.67 0 0 1-.539 2.806 6.593 6.593 0 0 1-1.658 2.312 7.55 7.55 0 0 1-5.35 2.052h-10.73V.47h9.948a7.45 7.45 0 0 1 5.205 1.994 6.372 6.372 0 0 1 1.612 2.23 6.45 6.45 0 0 1 .528 2.71c.033 1-.183 1.994-.628 2.888a5.957 5.957 0 0 1-1.916 2.23 6.335 6.335 0 0 1 2.599 2.396 6.44 6.44 0 0 1 .929 3.432ZM93.623 4.344v6.587h5.842a3.234 3.234 0 0 0 2.257-.989c.596-.615.93-1.443.93-2.305 0-.862-.334-1.69-.93-2.305a3.235 3.235 0 0 0-2.257-.988h-5.842Zm6.623 17.293a3.435 3.435 0 0 0 2.398-1.048 3.522 3.522 0 0 0 .987-2.447c0-.915-.355-1.794-.987-2.448a3.435 3.435 0 0 0-2.398-1.048h-6.622v7.02h6.622v-.03ZM115.776 21.584h11.106v3.926H111.67V.47h15.032V4.4h-10.933V10.9h10.036v3.9h-10.036l.007 6.783ZM144.869 25.51l-5.323-9.13h-4.859v9.13h-4.1V.47h10.035a7.57 7.57 0 0 1 3.094.579 7.65 7.65 0 0 1 2.603 1.79 7.651 7.651 0 0 1 1.778 2.592c.408.98.61 2.036.593 3.1a7.909 7.909 0 0 1-1.383 4.4 7.755 7.755 0 0 1-3.592 2.85l5.697 9.735-4.543-.006ZM134.688 4.344v8.378h5.901a4.12 4.12 0 0 0 2.791-1.3 4.22 4.22 0 0 0 1.139-2.89 4.22 4.22 0 0 0-1.139-2.888 4.12 4.12 0 0 0-2.791-1.3h-5.901ZM166.818 25.516l-5.298-9.13h-4.859v9.13h-4.1V.454h10.034a7.574 7.574 0 0 1 3.095.579 7.647 7.647 0 0 1 2.602 1.79 7.644 7.644 0 0 1 1.779 2.595c.409.98.611 2.036.594 3.1a7.915 7.915 0 0 1-1.383 4.403 7.76 7.76 0 0 1-3.592 2.852l5.697 9.74-4.569.003ZM156.667 4.33v8.382h5.901a4.12 4.12 0 0 0 2.801-1.296 4.223 4.223 0 0 0 1.145-2.895c0-1.078-.41-2.114-1.145-2.894a4.12 4.12 0 0 0-2.801-1.297h-5.901ZM174.396.456h4.106v25.058h-4.106V.456ZM187.468 21.584h11.105v3.926h-15.212V.47h15.032V4.4h-10.932V10.9h10.034v3.9h-10.034l.007 6.783ZM201.435 19.81l3.553-2.075a6.04 6.04 0 0 0 2.376 3.216 5.913 5.913 0 0 0 3.842 1c3.123 0 4.655-1.329 4.655-3.291a2.581 2.581 0 0 0-.306-1.33 2.551 2.551 0 0 0-.937-.98 17.845 17.845 0 0 0-4.454-1.791 17.398 17.398 0 0 1-5.254-2.284 5.727 5.727 0 0 1-1.866-2.205 5.802 5.802 0 0 1-.564-2.847 6.443 6.443 0 0 1 .563-2.917 6.353 6.353 0 0 1 1.81-2.34 8.491 8.491 0 0 1 5.691-1.962 9.206 9.206 0 0 1 5.19 1.421 9.372 9.372 0 0 1 3.544 4.093l-3.471 1.993a5.471 5.471 0 0 0-2.08-2.6 5.371 5.371 0 0 0-3.183-.894c-2.401 0-3.934 1.214-3.934 3.119 0 1.848 1.215 2.714 5.056 3.898.957.318 1.648.553 2.083.722.463.139 1.07.404 1.85.722.655.24 1.27.581 1.823 1.01a5.94 5.94 0 0 1 1.941 2.234c.45.9.667 1.899.632 2.906a6.628 6.628 0 0 1-.59 2.996 6.535 6.535 0 0 1-1.87 2.399 9.793 9.793 0 0 1-6.422 1.963c-4.849-.025-8.377-2.335-9.678-6.175Z"/></g></svg>