<svg xmlns="http://www.w3.org/2000/svg" width="170" height="32" fill="none"><path fill="#fff" d="M48.052 12.51H29.819v6.484h18.233V12.51Zm52.456-5.841H76.266v6.094h24.242V6.669Zm0 11.784H76.266v6.094h24.242v-6.094Zm18.49 6.384h26.734l-4.309 6.078H119.01l-.012-6.078Zm0-17.794h26.718l-4.3-6.085h-22.412l-.006 6.085Zm33.008 8.935-2.168 3.039h-31.625v-6.078h31.646l2.144 3.039h.003Z"/><path fill="#1D1D1B" d="M47.692 30.932h6.64V11.784l8.004 9.822 7.622-9.822v19.148h6.647V.957h-5.763L62.168 12.1 53.47.957H47.69v29.975h.002ZM7.857 12.937a7.448 7.448 0 0 1 2.44-4.916 7.46 7.46 0 0 1 5.148-1.914 6.802 6.802 0 0 1 6.692 4.101c.367.857.554 1.78.549 2.713l-14.83.016h.001Zm22.446 5.652c.18-1.736.18-3.487 0-5.223l-.06-.435a14.06 14.06 0 0 0-4.69-9.387A14.086 14.086 0 0 0 15.666.011C6.81.01 0 6.149 0 16.216c0 9.683 6.682 15.783 15.689 15.783a14.107 14.107 0 0 0 7.902-2.297 14.088 14.088 0 0 0 5.273-6.315h-7.925a7.222 7.222 0 0 1-5.702 2.51 7.32 7.32 0 0 1-5.095-1.961 7.306 7.306 0 0 1-2.317-4.94h22.431l.047-.407Zm89.026 12.343h-19.182V.957h19.182v6.09h-12.54v5.887h11.783v6.078h-11.783v5.821h12.542v6.099h-.002ZM141.276.97h8.052l6.333 9.916 6.335-9.932H170l-10.338 15.017 10.332 14.942h-8.022l-6.311-9.672-6.299 9.691h-8.077l10.377-14.962-10.066-14.555"/></svg>