<svg width="220" height="26" viewBox="0 0 220 26" fill="none" xmlns="http://www.w3.org/2000/svg">
<g id="Group 72">
<path id="&#208;&#154;&#208;&#190;&#208;&#189;&#209;&#130;&#209;&#131;&#209;&#128; 1905" d="M6.71504 25.517L0 0.453613H4.40564L9.56422 19.7066L15.0945 0.456381H19.194L24.7434 19.8076L29.9335 0.459147H34.3391L27.62 25.517H22.5133L17.1497 6.78966L11.7807 25.517H6.71504Z" fill="white"/>
<path id="&#208;&#154;&#208;&#190;&#208;&#189;&#209;&#130;&#209;&#131;&#209;&#128; 1906" d="M37.3818 0.470459H41.5757V25.5103H37.3818V0.470459Z" fill="white"/>
<path id="&#208;&#154;&#208;&#190;&#208;&#189;&#209;&#130;&#209;&#131;&#209;&#128; 1907" d="M50.5361 21.5731H60.7439V25.4992H46.4297V0.470459H50.5361V21.5731Z" fill="white"/>
<path id="&#208;&#154;&#208;&#190;&#208;&#189;&#209;&#130;&#209;&#131;&#209;&#128; 1908" d="M73.6412 0.496743C75.2387 0.453953 76.827 0.753375 78.3021 1.37538C79.7773 1.99739 81.106 2.92795 82.2011 4.10608C83.3306 5.28194 84.2172 6.67405 84.809 8.20096C85.4008 9.72787 85.6858 11.3589 85.6474 12.9987C85.6813 14.6374 85.3947 16.2667 84.8042 17.7929C84.2136 19.319 83.3308 20.7119 82.2065 21.8913C81.1114 23.0694 79.7827 24 78.3076 24.622C76.8324 25.244 75.2441 25.5434 73.6467 25.5006H63.7832V0.470459H73.644L73.6412 0.496743ZM73.6412 21.6035C74.7168 21.6464 75.7886 21.4516 76.7824 21.0329C77.7761 20.6141 78.6678 19.9813 79.3956 19.1784C80.9151 17.5069 81.7253 15.2981 81.6517 13.0277C81.6931 11.903 81.5151 10.781 81.128 9.72584C80.7409 8.67072 80.1522 7.70316 79.3956 6.87845C78.6643 6.08015 77.772 5.45042 76.7791 5.03198C75.7862 4.61355 74.7161 4.4162 73.6412 4.45332H67.9155V21.6077L73.6412 21.6035Z" fill="white"/>
<path id="&#208;&#154;&#208;&#190;&#208;&#189;&#209;&#130;&#209;&#131;&#209;&#128; 1909" d="M107.765 18.3498C107.79 19.3136 107.606 20.2713 107.226 21.1556C106.847 22.0399 106.281 22.8293 105.568 23.4684C104.116 24.8316 102.197 25.5676 100.218 25.52H89.4878V0.470502H99.436C101.359 0.435003 103.223 1.14863 104.641 2.46401C105.333 3.07902 105.883 3.84011 106.253 4.69365C106.622 5.5472 106.803 6.47244 106.781 7.40419C106.814 8.40477 106.598 9.39767 106.153 10.2919C105.709 11.1862 105.05 11.9533 104.237 12.5228C105.31 13.0555 106.211 13.8861 106.836 14.9178C107.461 15.9495 107.783 17.1398 107.765 18.3498ZM93.6229 4.34407V10.9305H99.4647C100.316 10.9129 101.126 10.5581 101.722 9.94246C102.318 9.32678 102.652 8.49921 102.652 7.6373C102.652 6.77538 102.318 5.94781 101.722 5.33213C101.126 4.71646 100.316 4.36173 99.4647 4.34407H93.6229ZM100.246 21.6368C101.15 21.6186 102.011 21.2423 102.644 20.5888C103.276 19.9353 103.631 19.0567 103.631 18.1416C103.631 17.2265 103.276 16.3478 102.644 15.6943C102.011 15.0408 101.15 14.6646 100.246 14.6464H93.6242V21.6658H100.246V21.6368Z" fill="white"/>
<path id="&#208;&#154;&#208;&#190;&#208;&#189;&#209;&#130;&#209;&#131;&#209;&#128; 1910" d="M115.776 21.5842H126.882V25.5103H111.67V0.470459H126.702V4.39936H115.769V10.9014H125.805V14.8013H115.769L115.776 21.5842Z" fill="white"/>
<path id="&#208;&#154;&#208;&#190;&#208;&#189;&#209;&#130;&#209;&#131;&#209;&#128; 1911" d="M144.869 25.5102L139.546 16.3796H134.687V25.5102H130.587V0.470339H140.622C141.682 0.444069 142.735 0.641032 143.716 1.04874C144.697 1.45644 145.583 2.066 146.319 2.83875C147.083 3.56836 147.689 4.45136 148.097 5.43133C148.505 6.41131 148.707 7.46672 148.69 8.53013C148.676 10.1047 148.194 11.6385 147.307 12.9318C146.42 14.2251 145.168 15.2178 143.715 15.7806L149.412 25.5157L144.869 25.5102ZM134.688 4.34391V12.7219H140.589C141.65 12.6667 142.649 12.2013 143.38 11.4217C144.112 10.6422 144.519 9.60806 144.519 8.53289C144.519 7.45773 144.112 6.42361 143.38 5.64407C142.649 4.86454 141.65 4.39912 140.589 4.34391H134.688Z" fill="white"/>
<path id="&#208;&#154;&#208;&#190;&#208;&#189;&#209;&#130;&#209;&#131;&#209;&#128; 1912" d="M166.818 25.5159L161.52 16.3854H156.661V25.5159H152.561V0.453949H162.595C163.655 0.427858 164.709 0.625038 165.69 1.03298C166.67 1.44093 167.557 2.05074 168.292 2.82375C169.057 3.55376 169.663 4.43719 170.071 5.41763C170.48 6.39806 170.682 7.45396 170.665 8.51789C170.651 10.093 170.169 11.6275 169.282 12.9215C168.395 14.2155 167.143 15.209 165.69 15.7725L171.387 25.5132L166.818 25.5159ZM156.667 4.33029V12.7124H162.568C163.632 12.6606 164.635 12.1965 165.369 11.4162C166.104 10.6359 166.514 9.59929 166.514 8.52135C166.514 7.44341 166.104 6.40683 165.369 5.62652C164.635 4.84622 163.632 4.38206 162.568 4.33029H156.667Z" fill="white"/>
<path id="&#208;&#154;&#208;&#190;&#208;&#189;&#209;&#130;&#209;&#131;&#209;&#128; 1913" d="M174.396 0.456299H178.502V25.5141H174.396V0.456299Z" fill="white"/>
<path id="&#208;&#154;&#208;&#190;&#208;&#189;&#209;&#130;&#209;&#131;&#209;&#128; 1914" d="M187.468 21.5842H198.573V25.5103H183.361V0.470459H198.393V4.39936H187.461V10.9014H197.495V14.8013H187.461L187.468 21.5842Z" fill="white"/>
<path id="&#208;&#154;&#208;&#190;&#208;&#189;&#209;&#130;&#209;&#131;&#209;&#128; 1915" d="M201.435 19.8105L204.988 17.7353C205.395 19.0502 206.233 20.1849 207.364 20.9515C208.494 21.7181 209.85 22.0706 211.206 21.9506C214.329 21.9506 215.861 20.6225 215.861 18.6595C215.88 18.1966 215.774 17.7373 215.555 17.3305C215.336 16.9237 215.012 16.5846 214.618 16.3492C213.219 15.5539 211.721 14.9518 210.164 14.559C208.301 14.0943 206.526 13.3227 204.91 12.275C204.112 11.7138 203.469 10.9545 203.044 10.0699C202.618 9.18533 202.424 8.20499 202.48 7.22276C202.438 6.21914 202.631 5.2196 203.043 4.30589C203.455 3.39219 204.076 2.59028 204.853 1.96577C206.453 0.636677 208.475 -0.0602386 210.544 0.0040864C212.375 -0.0502339 214.18 0.44419 215.734 1.42527C217.288 2.40634 218.521 3.83033 219.278 5.51839L215.807 7.51051C215.398 6.44636 214.671 5.53793 213.727 4.91179C212.784 4.28565 211.671 3.97299 210.544 4.01738C208.143 4.01738 206.61 5.23064 206.61 7.1356C206.61 8.98385 207.825 9.84987 211.666 11.0341C212.623 11.3523 213.314 11.5874 213.749 11.7562C214.212 11.8946 214.819 12.1602 215.599 12.4784C216.254 12.7185 216.869 13.0591 217.422 13.4883C218.245 14.0549 218.913 14.8236 219.363 15.7223C219.813 16.6211 220.03 17.6207 219.995 18.6277C220.034 19.6596 219.832 20.6864 219.405 21.6241C218.977 22.5618 218.337 23.3838 217.535 24.023C215.686 25.4158 213.414 26.1102 211.113 25.986C206.264 25.9611 202.736 23.6508 201.435 19.8105Z" fill="white"/>
</g>
</svg>
