<svg xmlns="http://www.w3.org/2000/svg" width="220" height="28" fill="none"><path fill="#0058FF" d="M152.723 17.947h-2.102a24.062 24.062 0 0 0-.225 4.032c0 1.67.827 3.494.827 4.937 0 .076-4.731.227-4.956.227a79.982 79.982 0 0 1 1.652-9.19h-3.68L137.631 2.45h-1.652V1.39h11.037v1.063h-2.778l5.105 12.53c.827-2.204 1.652-4.33 2.479-6.23.75-1.899 2.177-5.393 3.754-6.608a5.732 5.732 0 0 1 3.68-1.063 8.852 8.852 0 0 1 3.528.608 1.79 1.79 0 0 1-.376.76 3.971 3.971 0 0 0-.45 2.506h-.605a9.664 9.664 0 0 0-2.479-.532 4.414 4.414 0 0 0-3.456 1.747 12.762 12.762 0 0 0-2.178 3.874s-.45 1.14-1.201 3.418a43.894 43.894 0 0 0-1.276 3.342h1.953v1.14l.007.003Zm40.169-7.823h-11.563V8.527h1.953a6.286 6.286 0 0 0-1.502-4.71 5.184 5.184 0 0 0-6.832.304c-2.178 2.355-1.872 6.988-1.351 9.95.225.912.6 2.355 1.201 4.406.582 1.479.912 3.045.976 4.633a6.415 6.415 0 0 1-.525 1.974c.322.172.686.25 1.051.228a5.966 5.966 0 0 0 4.731-2.355 8.57 8.57 0 0 0 2.252-5.697v-.835h-1.952V14.83h11.561v1.595h-1.8c0 2.81-1.652 5.088-4.956 7.14a18.087 18.087 0 0 1-9.986 2.962 9.48 9.48 0 0 1-3.228-.455 7.83 7.83 0 0 0-.301-2.658 14.992 14.992 0 0 0-3.003-3.722 18.893 18.893 0 0 1-3.529-4.633 7.256 7.256 0 0 1-.6-3.266 9.45 9.45 0 0 1 3.979-7.9 15.39 15.39 0 0 1 9.455-2.813c4.13 0 7.282.911 9.46 2.811a8.296 8.296 0 0 1 2.703 4.633h1.806v1.598Zm-75.536 4.405 2.778-2.736a2.697 2.697 0 0 0 3.457-.151 4.638 4.638 0 0 0 1.051-3.418 9.441 9.441 0 0 0-.601-3.798 3.04 3.04 0 0 0-3.079-1.44c-1.953 0-3.079.988-3.456 3.343-.075.76-.144 2.05-.144 3.721v4.479h-.006Zm0 2.278v7.596h3.68v1.593h-14.192v-1.593h3.68V2.983h-3.753V1.39h13.215a17.16 17.16 0 0 1 9.539 1.974 5.527 5.527 0 0 1 2.853 4.937 6.166 6.166 0 0 1-2.102 4.786 8.003 8.003 0 0 1-7.434 1.594c-.751-.227-1.502-.608-2.479-.988l-3.007 3.115Zm88.526 7.823h3.979c1.351 0 3.304-.151 3.304-1.974V17.87a1.687 1.687 0 0 0-.301-1.215 8.612 8.612 0 0 0-1.872-.683 15.691 15.691 0 0 1-5.105-2.05l-.005 10.708Zm3.68-21.647h-3.68v8.811a15.254 15.254 0 0 0 4.956 2.127c1.51.466 3.076.722 4.656.76.826 0 1.652-.076 2.553-.076 1.126 0 1.953.38 1.953 2.279v6.76c0 2.43-1.351 2.354-2.703 2.354h-21.85v-1.595h3.6V2.983h-3.6V1.39h14.113l.002 1.594Z"/><path fill="red" d="m15.618 16.352-2.628-8.81-2.628 8.81h5.256Zm1.576 5.244h-8.41l-1.2 4.032H0l9.01-24.39h8.11l9.09 24.38h-7.814l-1.202-4.022Zm18.922-1.215h3.755c.952.09 1.907-.15 2.703-.683a2.37 2.37 0 0 0 .826-1.9 2.023 2.023 0 0 0-.826-1.67 4.15 4.15 0 0 0-2.703-.683h-3.755v4.936Zm0-9.57h3.229c.846.069 1.69-.145 2.402-.608a2.304 2.304 0 0 0 .676-1.747 2.027 2.027 0 0 0-.676-1.67 3.83 3.83 0 0 0-2.402-.608h-3.229v4.633Zm-7.509-9.573H42.5a7.524 7.524 0 0 1 5.328 1.747 5.518 5.518 0 0 1 1.873 4.33 5.535 5.535 0 0 1-1.351 3.72 5.319 5.319 0 0 1-2.552 1.596 6.805 6.805 0 0 1 3.835 2.196 5.821 5.821 0 0 1 1.201 3.874 6.839 6.839 0 0 1-.901 3.418 6.336 6.336 0 0 1-2.328 2.357 17.016 17.016 0 0 1-6.156 1.14h-12.84V1.238Zm24.404 0h22.597v6h-7.505v18.38h-7.509V7.238h-7.583v-6Zm32.511 12.228a8.194 8.194 0 0 0 1.35 5.317 4.638 4.638 0 0 0 3.68 1.595 4.778 4.778 0 0 0 3.756-1.518 9.598 9.598 0 0 0 1.276-5.697 7.758 7.758 0 0 0-1.35-5.089 4.581 4.581 0 0 0-3.68-1.519 4.414 4.414 0 0 0-3.68 1.594 8.194 8.194 0 0 0-1.352 5.317ZM89.802.858h1.504a12.479 12.479 0 0 1 8.485 3.19 12.436 12.436 0 0 1 3.226 9.195 15.612 15.612 0 0 1-1.351 6.988 10.192 10.192 0 0 1-4.13 4.245 13.014 13.014 0 0 1-6.683 1.52c-2.322.1-4.636-.344-6.757-1.296a10.053 10.053 0 0 1-4.355-4.177 13.456 13.456 0 0 1-1.652-7.064 12.736 12.736 0 0 1 3.304-9.342 12.12 12.12 0 0 1 8.41-3.26Z"/></svg>