<svg xmlns="http://www.w3.org/2000/svg" width="180" height="42" fill="none"><path fill="#fff" d="M5.751 37.38C1.917 34.16 0 28.7 0 20.79 0 13.02 1.917 7.564 5.751 4.55 9.585 1.535 15.628 0 23.738 0c8.258 0 14.304 1.54 18.138 4.55 3.906 3.014 5.823 8.4 5.823 16.24 0 7.91-1.917 13.37-5.824 16.52C38.114 40.46 32.069 42 23.738 42 15.56 41.995 9.51 40.46 5.75 37.38h.001ZM70.212 19.66a23.95 23.95 0 0 1-5.774.69 8.676 8.676 0 0 1-4.031-.604 2.897 2.897 0 0 1-.82-1.129 2.82 2.82 0 0 1-.189-1.37 2.573 2.573 0 0 1 .209-1.461 2.66 2.66 0 0 1 .982-1.124 6.84 6.84 0 0 1 3.299-.518c.952.032 1.9.118 2.841.259-.091-1.12-.183-1.294-2.841-1.38-1.234.016-2.463.16-3.666.43l-.458-2.672a32.087 32.087 0 0 1 5.315-.43c3.666 0 5.225.947 5.225 3.706v5.604h-.092Zm-3.484-3.273a12.45 12.45 0 0 0-1.832-.086 3.833 3.833 0 0 0-1.375.172c-.183.086-.274.259-.274.604 0 .689.182.776 1.557.776.645-.023 1.287-.08 1.925-.173v-1.296.003Zm12.647-5.949h3.756v9.052c-2.058.55-4.181.84-6.316.86-3.299 0-4.76-1.294-4.76-4.569v-5.258h3.755v5c0 .69.092 1.208.367 1.38.492.298 1.076.42 1.65.344.183 0 .733-.086 1.65-.173v-6.638h-.091l-.01.002Zm12.192 6.897c-.366 0-.733.085-.916.085-1.375 0-1.834-.258-1.834-1.034v-3.018h2.658a5.854 5.854 0 0 1 1.283-2.935h-3.944V7.42h-3.755v9.396a3.268 3.268 0 0 0 .178 1.492c.174.477.458.91.83 1.267a4.83 4.83 0 0 0 3.019.69c1.23.005 2.459-.11 3.665-.345a4.63 4.63 0 0 1-1.191-2.585h.007Zm40.046 0c-.366 0-.733.085-.916.085-1.375 0-1.834-.258-1.834-1.034v-3.018h2.658a5.86 5.86 0 0 1 1.283-2.935h-3.941V7.42h-3.756v9.396a3.268 3.268 0 0 0 .178 1.492c.175.477.458.91.83 1.267a4.83 4.83 0 0 0 3.019.69c1.231.005 2.459-.11 3.666-.345a6.35 6.35 0 0 1-1.192-2.585h.005ZM94.499 19.23a4.97 4.97 0 0 1-1.135-1.836 4.865 4.865 0 0 1-.24-2.13c0-1.895.458-3.188 1.375-3.879a7.342 7.342 0 0 1 4.4-1.12 6.777 6.777 0 0 1 4.399 1.12c.51.508.898 1.119 1.136 1.79.238.67.319 1.384.239 2.09a4.877 4.877 0 0 1-.24 2.13 4.972 4.972 0 0 1-1.135 1.835 6.777 6.777 0 0 1-4.4 1.121 7.341 7.341 0 0 1-4.4-1.12Zm2.75-1.982a3.362 3.362 0 0 0 3.298 0c.274-.259.366-.947.366-1.982a3.478 3.478 0 0 0-.366-2.069 3.361 3.361 0 0 0-3.299 0c-.274.259-.365.949-.365 2.069-.005 1.031.087 1.72.362 1.98l.003.002Zm9.346 6.38V10.78a19.31 19.31 0 0 1 5.408-.604 7.334 7.334 0 0 1 4.49 1.035c.916.69 1.375 1.983 1.375 3.88 0 3.707-1.375 5.172-4.308 5.172a8.326 8.326 0 0 1-3.299-.69v3.965h-3.666v.09Zm3.758-6.639c0 .259.824.516 1.832.516.917 0 1.467-.171 1.65-.43a2.437 2.437 0 0 0 .367-1.638c0-1.12-.092-1.724-.367-1.982a2.718 2.718 0 0 0-1.832-.43c-.584.014-1.167.072-1.742.172v3.794l.092-.002Zm12.646-10.602c.274.172.458.604.458 1.292.033.249.009.501-.071.74a1.69 1.69 0 0 1-.387.64 2.55 2.55 0 0 1-1.65.344 3.052 3.052 0 0 1-1.742-.344 1.822 1.822 0 0 1-.459-1.38c0-.69.184-1.12.459-1.292a3.7 3.7 0 0 1 1.742-.259 3.498 3.498 0 0 1 1.646.255l.004.004Zm.182 13.707h-3.756v-9.659h3.756v9.659Zm20.252-.259c-1.469.342-2.98.487-4.49.432-3.849 0-5.865-1.724-5.865-5.087a4.533 4.533 0 0 1 .265-2.107 4.644 4.644 0 0 1 1.202-1.773 6.434 6.434 0 0 1 4.124-1.12c1.924 0 3.115.173 4.032.861 1.007.69 1.374 1.897 1.374 3.88.016.49-.015.981-.091 1.467h-7.148c.091.948.642 1.208 2.566 1.208a14.48 14.48 0 0 0 3.299-.432l.732 2.672Zm-6.414-5.948h3.484c0-.948-.459-1.208-1.742-1.208s-1.654.255-1.745 1.205l.003.003Zm8.98 6.21v-9.662h3.758v1.12a3.822 3.822 0 0 1 1.473-1.087 3.938 3.938 0 0 1 1.826-.291h.916v3.189a6.932 6.932 0 0 0-1.559-.087 6.447 6.447 0 0 0-1.924.258c-.55.173-.825.345-.825.604v5.87h-3.666l.001.085Zm11.181-3.104a1.657 1.657 0 0 1 .458 1.38 2.131 2.131 0 0 1-.458 1.552 2.869 2.869 0 0 1-1.742.344 3.042 3.042 0 0 1-1.742-.346 2.126 2.126 0 0 1-.464-1.55 1.648 1.648 0 0 1 .072-.741c.081-.239.215-.457.392-.64.274-.258.825-.343 1.742-.343a3.042 3.042 0 0 1 1.738.338l.004.006Zm2.566 3.103v-9.661h3.757v1.12a3.828 3.828 0 0 1 1.473-1.088 3.931 3.931 0 0 1 1.826-.29h.917v3.189a6.935 6.935 0 0 0-1.558-.087 6.454 6.454 0 0 0-1.925.258c-.55.173-.824.345-.824.604v5.87h-3.67v.085h.004Zm16.495-9.655h3.757v9.051c-2.06.552-4.186.842-6.323.862-3.299 0-4.761-1.294-4.761-4.57v-5.262h3.758v5c0 .69.091 1.208.365 1.38.492.298 1.076.42 1.65.344.184 0 .734-.086 1.65-.173v-6.638h-.091l-.005.006Z"/><path fill="#F51F34" d="M26.127 28.564a38.266 38.266 0 0 1-10.136 1.185c-3.503 0-5.812-.348-7.005-1.115-1.192-.768-1.786-2.231-1.786-4.392 0-2.3.67-3.695 2.09-4.462 1.49-.767 3.055-.904 5.663-.904 1.671.054 3.338.193 4.993.418-.149-1.952-.373-2.23-4.918-2.3a29.144 29.144 0 0 0-6.409.697l-.823-4.674a52.22 52.22 0 0 1 9.242-.767c6.333 0 9.017 1.743 9.017 6.483v9.83h.072Zm-6.111-5.645c-1.045-.07-2.09-.14-3.28-.14a6.001 6.001 0 0 0-2.384.28c-.299.139-.523.488-.523 1.114 0 1.186.373 1.395 2.758 1.395a19.763 19.763 0 0 0 3.353-.348v-2.303h.075v.002Zm9.091 3.137 6.26-5.02-6.26-5.09 2.683-3.625 10.508 7.46v2.37l-10.507 7.53-2.684-3.625Z"/><path fill="#fff" d="M64.717 25.96a2.558 2.558 0 0 1-.826.092c-.274 0-.464.091-.734.091-.224.019-.443.081-.642.183-.183.092-.464.183-.642.275-.198.102-.36.259-.465.451-.183.2-.281.461-.273.73.413-.247.89-.374 1.376-.365.342.017.681.078 1.007.183.316.117.6.304.827.547.204.292.388.597.55.913.117.39.181.792.192 1.197a4.727 4.727 0 0 1-.184 1.278c-.159.338-.376.647-.642.914a1.903 1.903 0 0 1-.918.547 4.58 4.58 0 0 1-1.1.183A2.533 2.533 0 0 1 61.02 33a2.462 2.462 0 0 1-.982-.734 4.66 4.66 0 0 1-.64-2.745 6.248 6.248 0 0 1 .276-2.01c.13-.505.382-.974.733-1.369.337-.373.741-.682 1.193-.912.54-.21 1.091-.393 1.651-.547.236-.076.486-.107.734-.092.275 0 .464-.091.734-.091v1.46h-.001Zm-3.668 3.287v.73c-.035.502.06 1.004.275 1.461.183.365.464.452.917.452a.98.98 0 0 0 .474-.12.947.947 0 0 0 .352-.332c.199-.331.294-.712.275-1.095a1.153 1.153 0 0 0-.092-.547.695.695 0 0 0-.183-.452c-.092-.091-.184-.274-.367-.365a.832.832 0 0 0-.465-.091 1.798 1.798 0 0 0-.64.091 1.5 1.5 0 0 0-.546.269v-.001Zm10.73 1.005c-.01.431-.071.86-.184 1.278a3.533 3.533 0 0 1-.55 1.005 3.294 3.294 0 0 1-.918.64 2.52 2.52 0 0 1-1.19.182 4.677 4.677 0 0 1-1.193-.183 3.292 3.292 0 0 1-.918-.639 2.173 2.173 0 0 1-.55-1.004 2.89 2.89 0 0 1-.183-1.278c.009-.432.07-.86.183-1.278.158-.366.375-.705.642-1.005.266-.263.576-.479.917-.639.376-.156.786-.219 1.193-.183.404.01.804.07 1.191.183a3.3 3.3 0 0 1 .919.64c.289.268.481.62.549 1.004 0 .451.093.823.093 1.278l-.001-.001Zm-1.742 0a2.064 2.064 0 0 0-.274-1.188.997.997 0 0 0-.395-.349 1.03 1.03 0 0 0-.524-.102 1.254 1.254 0 0 0-.916.451 2.274 2.274 0 0 0-.275 1.188c-.03.413.066.826.275 1.186a.997.997 0 0 0 .395.348c.162.08.342.115.523.104.176-.009.35-.054.507-.131.159-.078.298-.187.41-.32.207-.36.302-.77.273-1.182v-.005Zm5.69-1.553v.64c.014.246-.017.494-.092.73 0 .274-.09.451-.09.73-.05.216-.11.43-.184.64-.066.239-.192.458-.367.638a1.547 1.547 0 0 1-.55.549c-.213.174-.465.299-.734.364a3.31 3.31 0 0 1-1.01.183l-.183-1.37c.366-.09.642-.182.917-.273a.938.938 0 0 0 .465-.548c.114-.195.177-.415.182-.639a2.01 2.01 0 0 0 .092-.731V27.33h4.402v5.843h-1.662V28.7h-1.187Zm6.052.73c.092 0 .276-.09.366-.09h.55c.34-.016.678.015 1.008.09.292.084.57.207.827.365.206.194.39.408.55.64a2.365 2.365 0 0 1 0 1.826c-.1.27-.295.495-.55.639a1.73 1.73 0 0 1-.826.365c-.33.08-.67.11-1.008.091a6.92 6.92 0 0 1-1.376-.091c-.366-.092-.826-.092-1.283-.182v-5.66h1.65v2.009h.092v-.001Zm.826 2.648c.255-.006.506-.069.734-.183a.71.71 0 0 0 .183-.912c-.091-.091-.183-.183-.275-.183-.092-.091-.183-.091-.366-.091h-1.1v1.37h.825-.001Zm3.76 1.095V27.33h1.65v4.474h1.559V27.33h1.651v4.474h1.558V27.33h1.651v5.843h-8.07Zm9.354-2.83c-.017-.47.078-.94.275-1.37.158-.365.375-.704.642-1.004a1.91 1.91 0 0 1 .917-.548 3.925 3.925 0 0 1 1.01-.183 3.035 3.035 0 0 1 2.017.73c.515.653.775 1.462.734 2.284v.547h-3.765a.948.948 0 0 0 .12.469.98.98 0 0 0 .338.354c.33.197.714.292 1.101.273a3.14 3.14 0 0 0 .917-.091c.275-.092.551-.092.734-.183l.184 1.37c-.092 0-.184.09-.366.09-.183 0-.275.092-.465.092-.189 0-.367.092-.55.092h-.642a3.07 3.07 0 0 1-1.375-.275 3.774 3.774 0 0 1-1.009-.639 1.791 1.791 0 0 1-.55-1.004 1.633 1.633 0 0 1-.272-1.003l.005-.001Zm3.851-.639a.82.82 0 0 0-.092-.452.69.69 0 0 0-.183-.364 1.266 1.266 0 0 0-.367-.274 1.189 1.189 0 0 0-.917 0c-.092.09-.274.181-.366.274a.478.478 0 0 0-.183.364.68.68 0 0 0-.092.452h2.2Zm4.494 1.827v.547c.009.247-.022.493-.092.73a2.15 2.15 0 0 1-.184.73 6.18 6.18 0 0 1-.275.73 5.45 5.45 0 0 0-.365.73l-1.285-.364c.165-.445.288-.904.367-1.37.069-.361.1-.728.092-1.096v-.639h1.742v.002Zm5.319-4.2v1.92a.54.54 0 0 0 .053.313.562.562 0 0 0 .222.234c.227.114.478.177.734.183h.642v-2.558h1.651v5.757h-1.651v-1.92a.834.834 0 0 0-.459.092h-.367a3.47 3.47 0 0 1-1.009-.091 3.296 3.296 0 0 1-.825-.366 3.998 3.998 0 0 1-.551-.639 3.282 3.282 0 0 1-.183-1.005v-1.919h1.742l.001-.001Zm4.677 3.013a3.04 3.04 0 0 1 .275-1.37c.159-.365.375-.704.642-1.004a1.91 1.91 0 0 1 .917-.547 3.936 3.936 0 0 1 1.009-.183 3.033 3.033 0 0 1 2.018.73c.515.652.775 1.461.734 2.283v.547h-3.759a.946.946 0 0 0 .122.47.976.976 0 0 0 .342.353c.33.197.713.292 1.1.273a3.14 3.14 0 0 0 .917-.091c.275-.091.55-.091.734-.183l.182 1.37c-.091 0-.182.09-.366.09-.183 0-.275.092-.464.092s-.366.092-.551.092h-.642a3.075 3.075 0 0 1-1.376-.275 3.782 3.782 0 0 1-1.009-.639 1.803 1.803 0 0 1-.55-1.004c-.275-.183-.275-.64-.275-1.005v.001Zm3.851-.639a.824.824 0 0 0-.091-.451.694.694 0 0 0-.184-.365 1.28 1.28 0 0 0-.366-.274 1.189 1.189 0 0 0-.917 0c-.092.091-.275.181-.367.274a.474.474 0 0 0-.183.365.676.676 0 0 0-.092.451h2.2Zm4.586.092v3.378h-1.652a7.861 7.861 0 0 1 .092-1.37c0-.548.092-1.005.092-1.552 0-.548.09-1.005.09-1.553.092-.547.092-.912.184-1.369h1.376c.274.548.642 1.095.917 1.644.275.548.55 1.187.826 1.826.275-.73.642-1.37.917-2.01a6.886 6.886 0 0 1 .826-1.46h1.375c.091.366.091.823.183 1.37.076.514.107 1.034.091 1.553 0 .547.092 1.095.092 1.552 0 .548.092 1.005.092 1.37h-1.651c.015-.58-.016-1.16-.092-1.736 0-.547-.092-1.095-.092-1.643l-1.192 2.738h-1.283l-1.193-2.738h.002Zm9.172-2.282c.276-.091.551-.184.918-.274a4.492 4.492 0 0 1 1.1-.092 3.15 3.15 0 0 1 .918.092c.25.076.495.168.734.274.228.134.417.323.55.548.124.256.187.537.182.821a1.718 1.718 0 0 1-.182.73c-.092.184-.367.366-.55.548.277.137.526.323.733.548.187.269.283.588.276.912.004.284-.059.566-.184.823l-.55.546c-.24.172-.528.267-.826.275a3.113 3.113 0 0 1-.917.091h-.642a1.787 1.787 0 0 1-.642-.091c-.184 0-.366-.092-.551-.092-.183-.091-.367-.091-.464-.183l.275-1.278c.238.083.484.144.734.182.361.076.731.107 1.101.092.642 0 1.009-.184 1.009-.549a.334.334 0 0 0-.092-.274c-.092-.092-.092-.182-.184-.182-.091 0-.183-.091-.275-.091h-1.651v-1.186h1.284a.78.78 0 0 0 .551-.183.685.685 0 0 0 .183-.364.476.476 0 0 0-.183-.366 1.075 1.075 0 0 0-.642-.182 2.856 2.856 0 0 0-.918.091c-.275.092-.55.092-.733.183l-.367-1.37.005.001Zm8.07-.274c.405.002.807.064 1.193.184a2.4 2.4 0 0 1 .825.451c.208.209.366.458.465.732a3.4 3.4 0 0 1 .091 1.005v3.468c-.275.091-.55.091-1.009.181a7.894 7.894 0 0 1-1.559.092 3.437 3.437 0 0 1-1.009-.092 3.264 3.264 0 0 1-.826-.364 4.065 4.065 0 0 1-.55-.64 2.676 2.676 0 0 1-.183-.913 1.804 1.804 0 0 1 .183-.821c.133-.225.322-.413.55-.548.233-.184.526-.281.826-.274a3.12 3.12 0 0 1 .917-.092h.551c.183 0 .275 0 .367.092v-.183a.705.705 0 0 0-.276-.64 1.207 1.207 0 0 0-.917-.273 2.55 2.55 0 0 0-.825.091 1.727 1.727 0 0 0-.734.183l-.183-1.37c.092 0 .183-.092.366-.092.184 0 .275-.091.465-.091.189 0 .365-.092.55-.092h.734l-.012.006Zm.092 4.838h.826V30.8h-1.1c-.184 0-.275.092-.367.092-.092.091-.183.091-.275.183-.092.091-.092.183-.092.364a.543.543 0 0 0 .054.314.567.567 0 0 0 .221.235c.184 0 .465.091.734.091h-.001Zm9.08-4.741v5.843h-1.651V28.7h-1.742v4.473h-1.651V27.33l5.044.007Zm2.934 0v1.919a.56.56 0 0 0 .275.547c.228.115.478.177.734.183h.642v-2.564h1.651v5.757h-1.651v-1.92a.832.832 0 0 0-.464.092h-.367a3.46 3.46 0 0 1-1.008-.091 3.292 3.292 0 0 1-.827-.366 4 4 0 0 1-.55-.639 3.253 3.253 0 0 1-.184-1.005v-1.919h1.742l.007.006Zm7.062-.092c.405.002.806.064 1.191.184.304.096.585.25.827.452.205.21.361.459.459.732.08.328.111.667.092 1.004v3.463c-.276.091-.551.091-1.01.181a7.88 7.88 0 0 1-1.558.092 3.433 3.433 0 0 1-1.009-.092 3.236 3.236 0 0 1-.825-.364 4.002 4.002 0 0 1-.551-.64 2.7 2.7 0 0 1-.182-.913 1.817 1.817 0 0 1 .182-.821c.133-.225.322-.414.551-.548.232-.184.525-.282.825-.274a3.12 3.12 0 0 1 .918-.092h.55c.183 0 .275 0 .367.092v-.183a.705.705 0 0 0-.275-.64 1.218 1.218 0 0 0-.918-.273 2.556 2.556 0 0 0-.825.091 1.724 1.724 0 0 0-.734.183l-.184-1.37c.092 0 .184-.092.367-.092.184 0 .274-.091.459-.091s.367-.092.55-.092h.734l-.001.011Zm.184 4.839h.825V30.8h-1.101c-.091 0-.275.092-.367.092-.091.091-.183.091-.274.183-.09.091-.091.183-.091.364a.549.549 0 0 0 .054.314.573.573 0 0 0 .22.235c.183 0 .367.091.734.091v.005Zm3.668-1.826c.008-.401.069-.8.182-1.187.123-.382.344-.727.642-1.004.265-.263.576-.479.917-.639.4-.187.839-.28 1.283-.274.279-.02.559.01.826.091.275.092.55.092.734.275l-.367 1.278c-.184-.092-.367-.092-.551-.182-.183 0-.367-.092-.642-.092a1.538 1.538 0 0 0-1.1.452 1.68 1.68 0 0 0-.366 1.188c-.025.211-.005.425.058.63.063.203.168.392.308.556.149.16.334.284.541.363.207.078.43.108.651.089.218.014.437-.017.642-.092.227-.005.448-.068.642-.182l.275 1.37a1.738 1.738 0 0 1-.733.183c-.3.075-.609.106-.918.091a3.064 3.064 0 0 1-1.374-.274 2.345 2.345 0 0 1-.918-.64 2.173 2.173 0 0 1-.55-1.004c-.188-.094-.188-.545-.188-.997l.006.001Zm10.821-1.552h-1.834v4.474h-1.651V28.7h-1.835v-1.37h5.411v1.37h-.092l.001.006Zm6.42-1.37v5.844h-1.657v-3.476c-.183.274-.464.64-.642.912-.178.274-.459.64-.642.914l-.55.821a8.28 8.28 0 0 0-.465.73h-1.463V27.24h1.651v3.195c.465-.638.826-1.277 1.193-1.735a8.92 8.92 0 0 1 1.1-1.369l1.475.007ZM5.751 37.38C1.917 34.16 0 28.7 0 20.79 0 13.02 1.917 7.564 5.751 4.55 9.585 1.535 15.628 0 23.738 0c8.258 0 14.304 1.54 18.138 4.55 3.906 3.014 5.823 8.4 5.823 16.24 0 7.91-1.917 13.37-5.824 16.52C38.114 40.46 32.069 42 23.738 42 15.56 41.995 9.51 40.46 5.75 37.38h.001ZM70.212 19.66a23.95 23.95 0 0 1-5.774.69 8.676 8.676 0 0 1-4.031-.604 2.897 2.897 0 0 1-.82-1.129 2.82 2.82 0 0 1-.189-1.37 2.573 2.573 0 0 1 .209-1.461 2.66 2.66 0 0 1 .982-1.124 6.84 6.84 0 0 1 3.299-.518c.952.032 1.9.118 2.841.259-.091-1.12-.183-1.294-2.841-1.38-1.234.016-2.463.16-3.666.43l-.458-2.672a32.087 32.087 0 0 1 5.315-.43c3.666 0 5.225.947 5.225 3.706v5.604h-.092Zm-3.484-3.273a12.45 12.45 0 0 0-1.832-.086 3.833 3.833 0 0 0-1.375.172c-.183.086-.274.259-.274.604 0 .689.182.776 1.557.776.645-.023 1.287-.08 1.925-.173v-1.296.003Zm12.647-5.949h3.756v9.052c-2.058.55-4.181.84-6.316.86-3.299 0-4.76-1.294-4.76-4.569v-5.258h3.755v5c0 .69.092 1.208.367 1.38.492.298 1.076.42 1.65.344.183 0 .733-.086 1.65-.173v-6.638h-.091l-.01.002Zm12.192 6.897c-.366 0-.733.085-.916.085-1.375 0-1.834-.258-1.834-1.034v-3.018h2.658a5.854 5.854 0 0 1 1.283-2.935h-3.944V7.42h-3.755v9.396a3.268 3.268 0 0 0 .178 1.492c.174.477.458.91.83 1.267a4.83 4.83 0 0 0 3.019.69c1.23.005 2.459-.11 3.665-.345a4.63 4.63 0 0 1-1.191-2.585h.007Zm40.046 0c-.366 0-.733.085-.916.085-1.375 0-1.834-.258-1.834-1.034v-3.018h2.658a5.86 5.86 0 0 1 1.283-2.935h-3.941V7.42h-3.756v9.396a3.268 3.268 0 0 0 .178 1.492c.175.477.458.91.83 1.267a4.83 4.83 0 0 0 3.019.69c1.231.005 2.459-.11 3.666-.345a6.35 6.35 0 0 1-1.192-2.585h.005ZM94.499 19.23a4.97 4.97 0 0 1-1.135-1.836 4.865 4.865 0 0 1-.24-2.13c0-1.895.458-3.188 1.375-3.879a7.342 7.342 0 0 1 4.4-1.12 6.777 6.777 0 0 1 4.399 1.12c.51.508.898 1.119 1.136 1.79.238.67.319 1.384.239 2.09a4.877 4.877 0 0 1-.24 2.13 4.972 4.972 0 0 1-1.135 1.835 6.777 6.777 0 0 1-4.4 1.121 7.341 7.341 0 0 1-4.4-1.12Zm2.75-1.982a3.362 3.362 0 0 0 3.298 0c.274-.259.366-.947.366-1.982a3.478 3.478 0 0 0-.366-2.069 3.361 3.361 0 0 0-3.299 0c-.274.259-.365.949-.365 2.069-.005 1.031.087 1.72.362 1.98l.003.002Zm9.346 6.38V10.78a19.31 19.31 0 0 1 5.408-.604 7.334 7.334 0 0 1 4.49 1.035c.916.69 1.375 1.983 1.375 3.88 0 3.707-1.375 5.172-4.308 5.172a8.326 8.326 0 0 1-3.299-.69v3.965h-3.666v.09Zm3.758-6.639c0 .259.824.516 1.832.516.917 0 1.467-.171 1.65-.43a2.437 2.437 0 0 0 .367-1.638c0-1.12-.092-1.724-.367-1.982a2.718 2.718 0 0 0-1.832-.43c-.584.014-1.167.072-1.742.172v3.794l.092-.002Zm12.646-10.602c.274.172.458.604.458 1.292.033.249.009.501-.071.74a1.69 1.69 0 0 1-.387.64 2.55 2.55 0 0 1-1.65.344 3.052 3.052 0 0 1-1.742-.344 1.822 1.822 0 0 1-.459-1.38c0-.69.184-1.12.459-1.292a3.7 3.7 0 0 1 1.742-.259 3.498 3.498 0 0 1 1.646.255l.004.004Zm.182 13.707h-3.756v-9.659h3.756v9.659Zm20.252-.259c-1.469.342-2.98.487-4.49.432-3.849 0-5.865-1.724-5.865-5.087a4.533 4.533 0 0 1 .265-2.107 4.644 4.644 0 0 1 1.202-1.773 6.434 6.434 0 0 1 4.124-1.12c1.924 0 3.115.173 4.032.861 1.007.69 1.374 1.897 1.374 3.88.016.49-.015.981-.091 1.467h-7.148c.091.948.642 1.208 2.566 1.208a14.48 14.48 0 0 0 3.299-.432l.732 2.672Zm-6.414-5.948h3.484c0-.948-.459-1.208-1.742-1.208s-1.654.255-1.745 1.205l.003.003Zm8.98 6.21v-9.662h3.758v1.12a3.822 3.822 0 0 1 1.473-1.087 3.938 3.938 0 0 1 1.826-.291h.916v3.189a6.932 6.932 0 0 0-1.559-.087 6.447 6.447 0 0 0-1.924.258c-.55.173-.825.345-.825.604v5.87h-3.666l.001.085Zm11.181-3.104a1.657 1.657 0 0 1 .458 1.38 2.131 2.131 0 0 1-.458 1.552 2.869 2.869 0 0 1-1.742.344 3.042 3.042 0 0 1-1.742-.346 2.126 2.126 0 0 1-.464-1.55 1.648 1.648 0 0 1 .072-.741c.081-.239.215-.457.392-.64.274-.258.825-.343 1.742-.343a3.042 3.042 0 0 1 1.738.338l.004.006Zm2.566 3.103v-9.661h3.757v1.12a3.828 3.828 0 0 1 1.473-1.088 3.931 3.931 0 0 1 1.826-.29h.917v3.189a6.935 6.935 0 0 0-1.558-.087 6.454 6.454 0 0 0-1.925.258c-.55.173-.824.345-.824.604v5.87h-3.67v.085h.004Zm16.495-9.655h3.757v9.051c-2.06.552-4.186.842-6.323.862-3.299 0-4.761-1.294-4.761-4.57v-5.262h3.758v5c0 .69.091 1.208.365 1.38.492.298 1.076.42 1.65.344.184 0 .734-.086 1.65-.173v-6.638h-.091l-.005.006Z"/><path fill="#F51F34" d="M26.127 28.564a38.266 38.266 0 0 1-10.136 1.185c-3.503 0-5.812-.348-7.005-1.115-1.192-.768-1.786-2.231-1.786-4.392 0-2.3.67-3.695 2.09-4.462 1.49-.767 3.055-.904 5.663-.904 1.671.054 3.338.193 4.993.418-.149-1.952-.373-2.23-4.918-2.3a29.144 29.144 0 0 0-6.409.697l-.823-4.674a52.22 52.22 0 0 1 9.242-.767c6.333 0 9.017 1.743 9.017 6.483v9.83h.072Zm-6.111-5.645c-1.045-.07-2.09-.14-3.28-.14a6.001 6.001 0 0 0-2.384.28c-.299.139-.523.488-.523 1.114 0 1.186.373 1.395 2.758 1.395a19.763 19.763 0 0 0 3.353-.348v-2.303h.075v.002Zm9.091 3.137 6.26-5.02-6.26-5.09 2.683-3.625 10.508 7.46v2.37l-10.507 7.53-2.684-3.625Z"/><path fill="#fff" d="M64.717 25.96a2.558 2.558 0 0 1-.826.092c-.274 0-.464.091-.734.091-.224.019-.443.081-.642.183-.183.092-.464.183-.642.275-.198.102-.36.259-.465.451-.183.2-.281.461-.273.73.413-.247.89-.374 1.376-.365.342.017.681.078 1.007.183.316.117.6.304.827.547.204.292.388.597.55.913.117.39.181.792.192 1.197a4.727 4.727 0 0 1-.184 1.278c-.159.338-.376.647-.642.914a1.903 1.903 0 0 1-.918.547 4.58 4.58 0 0 1-1.1.183A2.533 2.533 0 0 1 61.02 33a2.462 2.462 0 0 1-.982-.734 4.66 4.66 0 0 1-.64-2.745 6.248 6.248 0 0 1 .276-2.01c.13-.505.382-.974.733-1.369.337-.373.741-.682 1.193-.912.54-.21 1.091-.393 1.651-.547.236-.076.486-.107.734-.092.275 0 .464-.091.734-.091v1.46h-.001Zm-3.668 3.287v.73c-.035.502.06 1.004.275 1.461.183.365.464.452.917.452a.98.98 0 0 0 .474-.12.947.947 0 0 0 .352-.332c.199-.331.294-.712.275-1.095a1.153 1.153 0 0 0-.092-.547.695.695 0 0 0-.183-.452c-.092-.091-.184-.274-.367-.365a.832.832 0 0 0-.465-.091 1.798 1.798 0 0 0-.64.091 1.5 1.5 0 0 0-.546.269v-.001Zm10.73 1.005c-.01.431-.071.86-.184 1.278a3.533 3.533 0 0 1-.55 1.005 3.294 3.294 0 0 1-.918.64 2.52 2.52 0 0 1-1.19.182 4.677 4.677 0 0 1-1.193-.183 3.292 3.292 0 0 1-.918-.639 2.173 2.173 0 0 1-.55-1.004 2.89 2.89 0 0 1-.183-1.278c.009-.432.07-.86.183-1.278.158-.366.375-.705.642-1.005.266-.263.576-.479.917-.639.376-.156.786-.219 1.193-.183.404.01.804.07 1.191.183a3.3 3.3 0 0 1 .919.64c.289.268.481.62.549 1.004 0 .451.093.823.093 1.278l-.001-.001Zm-1.742 0a2.064 2.064 0 0 0-.274-1.188.997.997 0 0 0-.395-.349 1.03 1.03 0 0 0-.524-.102 1.254 1.254 0 0 0-.916.451 2.274 2.274 0 0 0-.275 1.188c-.03.413.066.826.275 1.186a.997.997 0 0 0 .395.348c.162.08.342.115.523.104.176-.009.35-.054.507-.131.159-.078.298-.187.41-.32.207-.36.302-.77.273-1.182v-.005Zm5.69-1.553v.64c.014.246-.017.494-.092.73 0 .274-.09.451-.09.73-.05.216-.11.43-.184.64-.066.239-.192.458-.367.638a1.547 1.547 0 0 1-.55.549c-.213.174-.465.299-.734.364a3.31 3.31 0 0 1-1.01.183l-.183-1.37c.366-.09.642-.182.917-.273a.938.938 0 0 0 .465-.548c.114-.195.177-.415.182-.639a2.01 2.01 0 0 0 .092-.731V27.33h4.402v5.843h-1.662V28.7h-1.187Zm6.052.73c.092 0 .276-.09.366-.09h.55c.34-.016.678.015 1.008.09.292.084.57.207.827.365.206.194.39.408.55.64a2.365 2.365 0 0 1 0 1.826c-.1.27-.295.495-.55.639a1.73 1.73 0 0 1-.826.365c-.33.08-.67.11-1.008.091a6.92 6.92 0 0 1-1.376-.091c-.366-.092-.826-.092-1.283-.182v-5.66h1.65v2.009h.092v-.001Zm.826 2.648c.255-.006.506-.069.734-.183a.71.71 0 0 0 .183-.912c-.091-.091-.183-.183-.275-.183-.092-.091-.183-.091-.366-.091h-1.1v1.37h.825-.001Zm3.76 1.095V27.33h1.65v4.474h1.559V27.33h1.651v4.474h1.558V27.33h1.651v5.843h-8.07Zm9.354-2.83c-.017-.47.078-.94.275-1.37.158-.365.375-.704.642-1.004a1.91 1.91 0 0 1 .917-.548 3.925 3.925 0 0 1 1.01-.183 3.035 3.035 0 0 1 2.017.73c.515.653.775 1.462.734 2.284v.547h-3.765a.948.948 0 0 0 .12.469.98.98 0 0 0 .338.354c.33.197.714.292 1.101.273a3.14 3.14 0 0 0 .917-.091c.275-.092.551-.092.734-.183l.184 1.37c-.092 0-.184.09-.366.09-.183 0-.275.092-.465.092-.189 0-.367.092-.55.092h-.642a3.07 3.07 0 0 1-1.375-.275 3.774 3.774 0 0 1-1.009-.639 1.791 1.791 0 0 1-.55-1.004 1.633 1.633 0 0 1-.272-1.003l.005-.001Zm3.851-.639a.82.82 0 0 0-.092-.452.69.69 0 0 0-.183-.364 1.266 1.266 0 0 0-.367-.274 1.189 1.189 0 0 0-.917 0c-.092.09-.274.181-.366.274a.478.478 0 0 0-.183.364.68.68 0 0 0-.092.452h2.2Zm4.494 1.827v.547c.009.247-.022.493-.092.73a2.15 2.15 0 0 1-.184.73 6.18 6.18 0 0 1-.275.73 5.45 5.45 0 0 0-.365.73l-1.285-.364c.165-.445.288-.904.367-1.37.069-.361.1-.728.092-1.096v-.639h1.742v.002Zm5.319-4.2v1.92a.54.54 0 0 0 .053.313.562.562 0 0 0 .222.234c.227.114.478.177.734.183h.642v-2.558h1.651v5.757h-1.651v-1.92a.834.834 0 0 0-.459.092h-.367a3.47 3.47 0 0 1-1.009-.091 3.296 3.296 0 0 1-.825-.366 3.998 3.998 0 0 1-.551-.639 3.282 3.282 0 0 1-.183-1.005v-1.919h1.742l.001-.001Zm4.677 3.013a3.04 3.04 0 0 1 .275-1.37c.159-.365.375-.704.642-1.004a1.91 1.91 0 0 1 .917-.547 3.936 3.936 0 0 1 1.009-.183 3.033 3.033 0 0 1 2.018.73c.515.652.775 1.461.734 2.283v.547h-3.759a.946.946 0 0 0 .122.47.976.976 0 0 0 .342.353c.33.197.713.292 1.1.273a3.14 3.14 0 0 0 .917-.091c.275-.091.55-.091.734-.183l.182 1.37c-.091 0-.182.09-.366.09-.183 0-.275.092-.464.092s-.366.092-.551.092h-.642a3.075 3.075 0 0 1-1.376-.275 3.782 3.782 0 0 1-1.009-.639 1.803 1.803 0 0 1-.55-1.004c-.275-.183-.275-.64-.275-1.005v.001Zm3.851-.639a.824.824 0 0 0-.091-.451.694.694 0 0 0-.184-.365 1.28 1.28 0 0 0-.366-.274 1.189 1.189 0 0 0-.917 0c-.092.091-.275.181-.367.274a.474.474 0 0 0-.183.365.676.676 0 0 0-.092.451h2.2Zm4.586.092v3.378h-1.652a7.861 7.861 0 0 1 .092-1.37c0-.548.092-1.005.092-1.552 0-.548.09-1.005.09-1.553.092-.547.092-.912.184-1.369h1.376c.274.548.642 1.095.917 1.644.275.548.55 1.187.826 1.826.275-.73.642-1.37.917-2.01a6.886 6.886 0 0 1 .826-1.46h1.375c.091.366.091.823.183 1.37.076.514.107 1.034.091 1.553 0 .547.092 1.095.092 1.552 0 .548.092 1.005.092 1.37h-1.651c.015-.58-.016-1.16-.092-1.736 0-.547-.092-1.095-.092-1.643l-1.192 2.738h-1.283l-1.193-2.738h.002Zm9.172-2.282c.276-.091.551-.184.918-.274a4.492 4.492 0 0 1 1.1-.092 3.15 3.15 0 0 1 .918.092c.25.076.495.168.734.274.228.134.417.323.55.548.124.256.187.537.182.821a1.718 1.718 0 0 1-.182.73c-.092.184-.367.366-.55.548.277.137.526.323.733.548.187.269.283.588.276.912.004.284-.059.566-.184.823l-.55.546c-.24.172-.528.267-.826.275a3.113 3.113 0 0 1-.917.091h-.642a1.787 1.787 0 0 1-.642-.091c-.184 0-.366-.092-.551-.092-.183-.091-.367-.091-.464-.183l.275-1.278c.238.083.484.144.734.182.361.076.731.107 1.101.092.642 0 1.009-.184 1.009-.549a.334.334 0 0 0-.092-.274c-.092-.092-.092-.182-.184-.182-.091 0-.183-.091-.275-.091h-1.651v-1.186h1.284a.78.78 0 0 0 .551-.183.685.685 0 0 0 .183-.364.476.476 0 0 0-.183-.366 1.075 1.075 0 0 0-.642-.182 2.856 2.856 0 0 0-.918.091c-.275.092-.55.092-.733.183l-.367-1.37.005.001Zm8.07-.274c.405.002.807.064 1.193.184a2.4 2.4 0 0 1 .825.451c.208.209.366.458.465.732a3.4 3.4 0 0 1 .091 1.005v3.468c-.275.091-.55.091-1.009.181a7.894 7.894 0 0 1-1.559.092 3.437 3.437 0 0 1-1.009-.092 3.264 3.264 0 0 1-.826-.364 4.065 4.065 0 0 1-.55-.64 2.676 2.676 0 0 1-.183-.913 1.804 1.804 0 0 1 .183-.821c.133-.225.322-.413.55-.548.233-.184.526-.281.826-.274a3.12 3.12 0 0 1 .917-.092h.551c.183 0 .275 0 .367.092v-.183a.705.705 0 0 0-.276-.64 1.207 1.207 0 0 0-.917-.273 2.55 2.55 0 0 0-.825.091 1.727 1.727 0 0 0-.734.183l-.183-1.37c.092 0 .183-.092.366-.092.184 0 .275-.091.465-.091.189 0 .365-.092.55-.092h.734l-.012.006Zm.092 4.838h.826V30.8h-1.1c-.184 0-.275.092-.367.092-.092.091-.183.091-.275.183-.092.091-.092.183-.092.364a.543.543 0 0 0 .054.314.567.567 0 0 0 .221.235c.184 0 .465.091.734.091h-.001Zm9.08-4.741v5.843h-1.651V28.7h-1.742v4.473h-1.651V27.33l5.044.007Zm2.934 0v1.919a.56.56 0 0 0 .275.547c.228.115.478.177.734.183h.642v-2.564h1.651v5.757h-1.651v-1.92a.832.832 0 0 0-.464.092h-.367a3.46 3.46 0 0 1-1.008-.091 3.292 3.292 0 0 1-.827-.366 4 4 0 0 1-.55-.639 3.253 3.253 0 0 1-.184-1.005v-1.919h1.742l.007.006Zm7.062-.092c.405.002.806.064 1.191.184.304.096.585.25.827.452.205.21.361.459.459.732.08.328.111.667.092 1.004v3.463c-.276.091-.551.091-1.01.181a7.88 7.88 0 0 1-1.558.092 3.433 3.433 0 0 1-1.009-.092 3.236 3.236 0 0 1-.825-.364 4.002 4.002 0 0 1-.551-.64 2.7 2.7 0 0 1-.182-.913 1.817 1.817 0 0 1 .182-.821c.133-.225.322-.414.551-.548.232-.184.525-.282.825-.274a3.12 3.12 0 0 1 .918-.092h.55c.183 0 .275 0 .367.092v-.183a.705.705 0 0 0-.275-.64 1.218 1.218 0 0 0-.918-.273 2.556 2.556 0 0 0-.825.091 1.724 1.724 0 0 0-.734.183l-.184-1.37c.092 0 .184-.092.367-.092.184 0 .274-.091.459-.091s.367-.092.55-.092h.734l-.001.011Zm.184 4.839h.825V30.8h-1.101c-.091 0-.275.092-.367.092-.091.091-.183.091-.274.183-.09.091-.091.183-.091.364a.549.549 0 0 0 .054.314.573.573 0 0 0 .22.235c.183 0 .367.091.734.091v.005Zm3.668-1.826c.008-.401.069-.8.182-1.187.123-.382.344-.727.642-1.004.265-.263.576-.479.917-.639.4-.187.839-.28 1.283-.274.279-.02.559.01.826.091.275.092.55.092.734.275l-.367 1.278c-.184-.092-.367-.092-.551-.182-.183 0-.367-.092-.642-.092a1.538 1.538 0 0 0-1.1.452 1.68 1.68 0 0 0-.366 1.188c-.025.211-.005.425.058.63.063.203.168.392.308.556.149.16.334.284.541.363.207.078.43.108.651.089.218.014.437-.017.642-.092.227-.005.448-.068.642-.182l.275 1.37a1.738 1.738 0 0 1-.733.183c-.3.075-.609.106-.918.091a3.064 3.064 0 0 1-1.374-.274 2.345 2.345 0 0 1-.918-.64 2.173 2.173 0 0 1-.55-1.004c-.188-.094-.188-.545-.188-.997l.006.001Zm10.821-1.552h-1.834v4.474h-1.651V28.7h-1.835v-1.37h5.411v1.37h-.092l.001.006Zm6.42-1.37v5.844h-1.657v-3.476c-.183.274-.464.64-.642.912-.178.274-.459.64-.642.914l-.55.821a8.28 8.28 0 0 0-.465.73h-1.463V27.24h1.651v3.195c.465-.638.826-1.277 1.193-1.735a8.92 8.92 0 0 1 1.1-1.369l1.475.007Z"/></svg>