<svg width="180" height="58" viewBox="0 0 180 58" fill="none" xmlns="http://www.w3.org/2000/svg">
<g id="Group 69">
<path id="&#208;&#154;&#208;&#190;&#208;&#189;&#209;&#130;&#209;&#131;&#209;&#128; 1893" d="M12.5201 36.4796H7.67233C8.0801 37.6446 8.5816 38.7749 9.17194 39.8593L4.53296 44.4878C6.84145 48.1243 9.92922 51.2051 13.5741 53.5084L18.213 48.8799C19.2942 49.4638 20.4187 49.9641 21.5767 50.3761V36.4991L12.5159 36.4796H12.5201ZM53.6305 13.5135C51.3224 9.87703 48.2351 6.79626 44.5907 4.49292L39.9406 9.12137C38.858 8.53059 37.7282 8.03015 36.5629 7.62516V21.5021H50.4715C50.0595 20.3387 49.5581 19.2088 48.9719 18.1224L53.6305 13.5135Z" fill="white"/>
<path id="&#208;&#154;&#208;&#190;&#208;&#189;&#209;&#130;&#209;&#131;&#209;&#128; 1892" d="M29.0618 51.6458C26.5146 51.6422 23.986 51.2135 21.5805 50.3776V57.0182C26.4931 58.3273 31.664 58.3273 36.5766 57.0182V50.3776C34.165 51.2157 31.6295 51.6444 29.0758 51.6458M29.0618 6.35695C31.616 6.35308 34.1523 6.78194 36.5626 7.62523V0.98179C31.65 -0.327263 26.4791 -0.327263 21.5665 0.98179V7.62523C23.9736 6.78261 26.5066 6.35376 29.0576 6.35695M6.3714 29.007C6.36753 26.4586 6.79736 23.928 7.64257 21.5232H0.984023C-0.328008 26.4246 -0.328008 31.5838 0.984023 36.4852H7.6734C6.82887 34.0836 6.39904 31.5564 6.40224 29.0112M48.9911 39.8552C49.5792 38.773 50.0806 37.6462 50.4907 36.4852H36.5822V50.3622C37.7458 49.953 38.8752 49.4527 39.9599 48.866L44.61 53.4944C48.2532 51.1873 51.3405 48.1056 53.6511 44.4697L48.9911 39.8552ZM18.1833 9.12283L13.5443 4.49438C9.89732 6.79437 6.80899 9.87522 4.5032 13.5136L9.14218 18.142C8.55184 19.2264 8.05033 20.3567 7.64257 21.5218H21.5511V7.6448C20.3851 8.05599 19.2526 8.55621 18.1637 9.14101" fill="white"/>
<path id="&#208;&#154;&#208;&#190;&#208;&#189;&#209;&#130;&#209;&#131;&#209;&#128; 1894" d="M63.3094 44.1717L62.0971 42.0309L60.875 44.1717H63.3094ZM62.7628 41.0689L65.8728 46.2231H64.4615L63.8055 45.0835H60.3887L59.7426 46.2231H58.4812L61.5505 41.0689H62.7628ZM70.8691 45.3114H73.71C73.8683 45.3247 74.0263 45.2827 74.1571 45.1925C74.2019 45.1475 74.236 45.0929 74.2566 45.0328C74.2772 44.9727 74.2839 44.9088 74.2762 44.8457V44.4486C74.2827 44.3857 74.2755 44.322 74.2549 44.2621C74.2343 44.2022 74.2009 44.1475 74.1571 44.1018C74.0197 44.0106 73.854 43.9719 73.6904 43.9928H70.8691V45.3114ZM70.8691 41.9218V43.1412H73.6805C73.8396 43.1585 74 43.1237 74.1374 43.0419C74.1744 43.0087 74.2027 42.9671 74.2201 42.9205C74.2374 42.874 74.2432 42.824 74.2369 42.7748V42.2896C74.2401 42.2366 74.232 42.1835 74.2132 42.1339C74.1944 42.0843 74.1652 42.0391 74.1276 42.0015C73.9876 41.9383 73.8339 41.9109 73.6805 41.9218H70.8691ZM74.2664 41.0689C74.6166 41.0299 74.9693 41.1177 75.26 41.3164C75.3533 41.4155 75.4252 41.5326 75.4713 41.6606C75.5173 41.7886 75.5365 41.9246 75.5277 42.0603V42.6853C75.5323 42.7964 75.5124 42.9072 75.4695 43.0098C75.4267 43.1125 75.3619 43.2046 75.2797 43.2796C75.1015 43.4374 74.8797 43.5378 74.6434 43.5677C74.8848 43.5965 75.111 43.7008 75.2895 43.8655C75.4631 44.0509 75.5589 44.2956 75.5572 44.5493V45.2135C75.5639 45.367 75.5282 45.5193 75.454 45.654C75.3799 45.7886 75.2701 45.9003 75.1367 45.977C74.8007 46.1547 74.4235 46.2401 74.0435 46.2245H69.6568V41.0689H74.2664ZM83.1673 46.2231H81.9158V41.9862H79.4127V41.0647H85.6718V41.9862H83.1687L83.1673 46.2231ZM95.0997 42.0407H90.9078V45.2429H95.0997V42.0407ZM89.6549 42.2882C89.6176 41.9328 89.7212 41.5769 89.9436 41.2968C90.2377 41.1063 90.5885 41.0224 90.9373 41.0591H94.9806C95.3616 41.0231 95.7436 41.1172 96.064 41.3262C96.2764 41.6104 96.3689 41.9662 96.3219 42.3176V45.0932C96.3499 45.4062 96.2577 45.7181 96.064 45.9658C95.9113 46.0827 95.7371 46.1684 95.5511 46.2178C95.3652 46.2672 95.1713 46.2795 94.9806 46.2539H91.0073C90.6228 46.2954 90.2359 46.2009 89.9142 45.9868C89.7091 45.6991 89.6173 45.3462 89.6563 44.9954L89.6549 42.2882ZM101.988 42.6853L100.746 42.5063V42.1987C100.73 42.0382 100.748 41.8761 100.798 41.7226C100.847 41.5691 100.928 41.4275 101.035 41.3066C101.332 41.1238 101.681 41.0405 102.029 41.0689H105.558C105.847 41.0507 106.134 41.131 106.372 41.2968C106.479 41.3915 106.561 41.51 106.613 41.6428C106.665 41.7755 106.685 41.9185 106.671 42.0603V42.6853C106.673 42.7962 106.653 42.9065 106.61 43.0089C106.567 43.1113 106.503 43.2035 106.422 43.2796C106.241 43.4321 106.021 43.5318 105.786 43.5677C106.028 43.5943 106.255 43.6989 106.432 43.8655C106.522 43.9547 106.592 44.0615 106.638 44.1792C106.685 44.297 106.705 44.423 106.7 44.5493V45.2135C106.712 45.3993 106.663 45.5839 106.558 45.7384C106.454 45.8928 106.301 46.0082 106.124 46.0665C105.805 46.1796 105.468 46.2332 105.13 46.2245H102.054C101.655 46.263 101.256 46.1534 100.933 45.9169C100.766 45.6697 100.682 45.3757 100.695 45.0779V44.6919L101.946 44.4346V45.3072H104.837C105.005 45.3241 105.174 45.2821 105.314 45.1883C105.359 45.1473 105.394 45.0964 105.416 45.0397C105.439 44.983 105.448 44.9219 105.443 44.8611V44.4193C105.445 44.3602 105.435 44.3013 105.413 44.2465C105.391 44.1917 105.357 44.1424 105.314 44.1018C105.186 44.0151 105.031 43.9764 104.877 43.9928H102.938V43.1398H104.926C105.055 43.1533 105.185 43.1216 105.293 43.0503C105.33 43.014 105.359 42.9703 105.378 42.9221C105.396 42.8739 105.405 42.8223 105.402 42.7706V42.2756C105.407 42.2237 105.4 42.1713 105.381 42.1227C105.362 42.0741 105.332 42.0307 105.293 41.996C105.158 41.9268 105.006 41.8991 104.856 41.9163H102.005L101.995 42.6797L101.988 42.6853ZM115.281 44.1717L114.069 42.0309L112.847 44.1717H115.281ZM114.735 41.0689L117.845 46.2231H116.44L115.794 45.0835H112.368L111.724 46.2231H110.463L113.532 41.0689H114.735ZM127.919 41.0591V46.2231H126.667V42.091H122.828V46.2231H121.577V41.0591H127.919ZM138.241 41.0689V46.2231H136.989V44.3409H133.588C133.267 44.3649 132.946 44.2849 132.674 44.113C132.569 44.0167 132.488 43.8979 132.437 43.7656C132.385 43.6333 132.364 43.4911 132.376 43.3495V41.0703H133.547V42.944C133.54 43.0035 133.548 43.0639 133.57 43.1194C133.593 43.175 133.629 43.2238 133.676 43.2614C133.788 43.3344 133.92 43.3693 134.053 43.3607H137.034V41.0591L138.246 41.0689H138.241ZM147.023 44.1717L145.81 42.0309L144.588 44.1717H147.023ZM146.476 41.0689L149.586 46.2231H148.175L147.519 45.0835H144.101L143.454 46.2231H142.193L145.262 41.0689H146.476ZM159.123 45.0037C159.148 45.1807 159.135 45.361 159.083 45.5321C159.031 45.7033 158.943 45.8613 158.825 45.9952C158.512 46.2025 158.135 46.2904 157.762 46.2427H154.539C154.166 46.2799 153.791 46.1891 153.477 45.9854C153.365 45.8478 153.282 45.689 153.234 45.5185C153.186 45.348 153.173 45.1695 153.196 44.994V42.2784C153.171 42.1022 153.183 41.9225 153.233 41.7514C153.283 41.5804 153.369 41.422 153.485 41.287C153.798 41.09 154.17 41.0061 154.538 41.0493H157.761C158.132 40.9995 158.509 41.0839 158.823 41.287C158.941 41.4217 159.028 41.5797 159.079 41.7507C159.131 41.9216 159.145 42.1015 159.122 42.2784V42.7944L157.87 42.9832V41.9862H154.432V45.1883H157.87V44.0976L159.122 44.3549V44.9996L159.123 45.0037ZM166.704 46.2231H165.462V41.9862H162.949V41.0647H169.208V41.9862H166.705L166.704 46.2231ZM174.523 41.0591V44.8164L178.997 41.0591H180V46.2231H178.749V42.4672L174.288 46.2245H173.294V41.0591H174.523ZM19.6456 30.2151V30.7213C19.6456 31.0093 20.5593 31.2373 21.6329 31.2373H24.8718C25.993 31.2373 26.8591 31.0093 26.8591 30.7311V30.2151H19.6456ZM14.6786 24.1687H28.5872C30.5745 24.1687 32.1442 24.9028 32.1442 26.8647V30.9492C32.1442 32.932 30.5549 33.6452 28.5872 33.6452H18.2048C16.2175 33.6452 14.6478 32.5265 14.6576 31.1575V28.9664C14.6576 28.3525 15.2434 27.7568 16.3268 27.7568H26.9474V27.2716C26.9474 27.0045 26.0434 26.7864 24.9601 26.7864H14.6282L14.6786 24.1687ZM50.7912 30.959C50.7912 32.9418 49.2019 33.6452 47.2342 33.6452H37.0803C35.0929 33.6452 33.5233 32.911 33.5233 30.959V24.1687H38.8083V30.0571C38.8083 31.1757 39.7221 31.2261 40.7957 31.2261H43.7767C44.8979 31.2261 45.764 31.1771 45.764 30.0571V24.1589H50.6426L50.7912 30.959ZM66.5581 33.6452H55.7581C54.8138 33.6426 53.9091 33.2665 53.2423 32.5994C52.5755 31.9323 52.2011 31.0286 52.2011 30.0864V20.6897H57.168V24.1687H66.5371V26.6046H57.1891V31.1072H66.5483L66.5581 33.6452ZM73.3638 27.7722V29.9424C73.3638 31.0611 74.2776 31.1114 75.4002 31.1114H77.9033C79.0245 31.1114 79.8906 31.0625 79.8906 29.9424V27.7666C79.8906 26.648 78.9866 26.6074 77.9033 26.6074H75.389C74.2678 26.6074 73.3526 26.6074 73.4016 27.7666L73.3638 27.7722ZM81.7981 33.6452H71.5671C69.5798 33.6452 68.0101 32.911 68.0101 30.959V26.8647C68.0101 24.8819 69.6092 24.1687 71.5671 24.1687H81.7883C83.7756 24.1687 85.3453 24.9028 85.3551 26.8647V30.959C85.3537 32.9418 83.7644 33.6452 81.7981 33.6452ZM110.878 27.7722V29.9424C110.878 31.0611 111.792 31.1114 112.914 31.1114H115.417C116.539 31.1114 117.405 31.0625 117.405 29.9424V27.7666C117.405 26.648 116.501 26.6074 115.417 26.6074H112.903C111.782 26.6074 110.867 26.6074 110.916 27.7666L110.878 27.7722ZM119.312 33.6452H109.01C107.022 33.6452 105.453 32.911 105.453 30.959V26.8647C105.453 24.8819 107.052 24.1687 109.01 24.1687H119.232C121.22 24.1687 122.789 24.9028 122.799 26.8647V30.959C122.799 32.9418 121.21 33.6452 119.242 33.6452M98.6904 29.9382C98.6904 31.0569 97.7864 31.1072 96.7031 31.1072H94.1958C93.0746 31.1072 92.1594 31.0583 92.1594 29.9382V27.7666C92.1594 26.648 93.0634 26.6074 94.1467 26.6074H96.6596C97.7808 26.6074 98.6469 26.6074 98.6469 27.7666L98.6904 29.9382ZM104.072 20.6897H98.6904V24.1687H90.2814C88.294 24.1687 86.7243 24.9028 86.7243 26.8647V30.959C86.7243 32.9418 88.3235 33.6452 90.2814 33.6452H100.512C102.5 33.6452 104.069 32.911 104.069 30.959V20.6897H104.072ZM134.175 31.1072H131.671C130.549 31.1072 129.634 31.0583 129.634 29.9382V27.7666C129.634 26.648 130.538 26.6074 131.622 26.6074H141.557V24.1687H127.795C125.808 24.1687 124.238 24.9028 124.238 26.8647V30.959C124.238 32.9418 125.838 33.6452 127.795 33.6452H141.576V31.1072H134.175Z" fill="white"/>
<path id="&#208;&#154;&#208;&#190;&#208;&#189;&#209;&#130;&#209;&#131;&#209;&#128; 1895" d="M179.993 35.6672C179.993 37.65 178.403 38.3534 176.436 38.3534H166.283C164.296 38.3534 162.726 37.6193 162.726 35.6672V28.877H168.001V34.7751C168.001 35.9049 168.915 35.9441 170.038 35.9441H173.019C174.14 35.9441 175.055 35.9441 175.055 34.7751V28.877H179.934L179.994 35.6672H179.993ZM149.134 38.3534V32.4804C149.134 31.3506 150.038 31.3114 151.122 31.3114H161.056V28.8867H147.296C145.308 28.8867 143.739 29.6097 143.739 31.5729V38.3534H149.133H149.134ZM141.554 35.9343H138.505V38.3436H141.555L141.554 35.9343Z" fill="white"/>
</g>
</svg>
