<svg xmlns="http://www.w3.org/2000/svg" width="175" height="69" fill="none"><g clip-path="url(#a)"><path stroke="#F2712F" stroke-width="1.527" d="M33.84 55.238c11.073 0 20.05-8.977 20.05-20.051 0-11.074-8.977-20.051-20.05-20.051-11.075 0-20.052 8.977-20.052 20.051 0 11.074 8.977 20.051 20.051 20.051Z"/><path stroke="#F2712F" stroke-width="1.527" d="M22.493 52.177c-3.006 1.513-5.981 1.983-7.3.856-3.31-2.818 1.46-13.83 10.647-24.571 9.186-10.741 19.324-17.17 22.633-14.352 1.378 1.179 1.357 3.779.188 7.192"/><path stroke="#F2712F" stroke-width="1.527" d="M44.983 52.177c3.006 1.513 6.21 1.983 7.536.856 3.309-2.818-1.461-13.83-10.647-24.571-9.186-10.741-19.316-17.17-22.625-14.352-1.378 1.179-1.357 3.779-.188 7.192"/><path stroke="#F2712F" stroke-width="2.244" d="M53.484 31.993c4.426 1.148 5.908 2.453 5.908 4.373 0 3.946-11.482 7.066-25.635 7.066-14.153 0-25.584-2.598-25.584-6.819 0-2.2 2.65-3.685 6.012-4.864"/><path stroke="#F2712F" stroke-width="2.244" d="M33.766 67.556c18.029 0 32.644-14.872 32.644-33.217S51.795 1.122 33.766 1.122c-18.029 0-32.644 14.872-32.644 33.217s14.615 33.217 32.644 33.217Z"/><path fill="#F56E1E" d="m23.276 48.214 10.62-22.41 10.63 22.41h-4.05l-6.574-13.893-6.566 13.893h-4.06Z"/><path stroke="#F2712F" stroke-width="1.497" d="m33.896 25.804-10.62 22.41h4.06L33.9 34.321l6.577 13.893h4.05l-10.632-22.41Z"/><path fill="#F56E1E" d="M148.797 25.181a12.718 12.718 0 0 0 7.802 11.924 12.718 12.718 0 0 0 16.714-6.998c.627-1.566.937-3.24.911-4.926a12.719 12.719 0 0 0-7.803-11.924 12.71 12.71 0 0 0-13.97 2.807 12.712 12.712 0 0 0-3.654 9.117Zm18.465 0a5.774 5.774 0 1 1-11.523 0 5.774 5.774 0 1 1 11.523 0Zm-33.349 12.5h6.952V19.42h6.753v-6.753h-20.451v6.753h6.753v18.266l-.007-.004Zm-21.554-5.365v-5.163h3.768a2.586 2.586 0 0 1 2.56 3.611 2.593 2.593 0 0 1-2.56 1.545h-3.768v.007Zm0-9.926v-4.37h3.173a2.189 2.189 0 0 1 .895 4.256 2.19 2.19 0 0 1-.895.107h-3.173v.007Zm-6.952 15.291h12.317c5.2 0 8.34-3.173 8.34-7.15a6.257 6.257 0 0 0-2.182-4.843 8.51 8.51 0 0 0-2.185-1.31 6.475 6.475 0 0 0 1.67-1.19 5.482 5.482 0 0 0 1.712-3.978c0-3.61-2.975-6.555-8.142-6.555h-11.513v25.03l-.017-.004Zm-26.857 0h7.347l1.388-4.572h7.547l1.388 4.572h7.347l-8.538-25.02h-7.944l-8.535 25.02Zm10.33-10.12 2.182-7.15 2.182 7.15H88.88ZM163.343 56.284h3.194l.605-1.983h3.274l.605 1.983h3.195l-3.7-10.866h-3.444l-3.729 10.866Zm4.478-4.394.95-3.1.95 3.1h-1.9ZM153.5 56.284h3.016v-4.739l3.017 4.739h3.444l-3.789-5.522 3.444-5.344h-3.361l-2.756 4.6v-4.6h-3.017l.002 10.866Zm-11.628 0h2.672l4.05-5.95v5.95h3.022V45.431h-2.672l-4.05 5.95v-5.95h-3.017l-.005 10.853Zm-6.763-5.853v-2.247h1.294a1.118 1.118 0 0 1 1.202 1.117 1.129 1.129 0 0 1-.358.82 1.114 1.114 0 0 1-.844.297h-1.294v.013Zm-3.017 5.856h3.017v-3.1h1.555a3.884 3.884 0 0 0 3.728-5.405 3.888 3.888 0 0 0-3.728-2.361h-4.572v10.866Zm-7.014 0h3.017v-7.936h2.933v-2.933h-8.883v2.933h2.933v7.936Zm-12.766 0h3.017v-4.742l3.017 4.739h3.444l-3.789-5.522 3.444-5.344h-3.361l-2.756 4.6v-4.6h-3.012v10.866l-.004.003Zm-9.874 0h8.278v-2.675h-5.261v-1.555h4.655v-2.589h-4.655v-1.377h5.083v-2.673h-8.1v10.869Zm-12.223 0c.123.037.249.065.376.084.272.055.548.083.825.083 1.91 0 3.173-1.294 3.361-3.444l.344-4.655h2.411v7.933h3.017V45.431h-8.1l-.52 6.8c-.074.919-.534 1.378-1.379 1.378h-.344v2.672l.01.006Zm-11.199-3.625a5.585 5.585 0 0 0 5.188 3.789 5.607 5.607 0 1 0-5.177-7.327l3.1.261c.13-.234.29-.448.48-.637a2.2 2.2 0 0 1 1.587-.658 2.414 2.414 0 0 1 1.847.772c.205.225.365.486.475.769h-3.33v2.411h3.33a2.407 2.407 0 0 1-2.328 1.555 2.164 2.164 0 0 1-1.587-.605 2.087 2.087 0 0 1-.48-.605l-3.105.275Z"/></g><defs><clipPath id="a"><path fill="#fff" d="M0 0h174.22v68.677H0z"/></clipPath></defs></svg>