<svg xmlns="http://www.w3.org/2000/svg" width="138" height="30" fill="none"><path fill="#fff" fill-rule="evenodd" d="M16.671.083c-3.1-.325-6.226.312-8.946 1.825a15.037 15.037 0 0 0-6.249 6.621 14.92 14.92 0 0 0-1.261 8.992 14.97 14.97 0 0 0 4.187 8.069 15.12 15.12 0 0 0 8.103 4.188 15.17 15.17 0 0 0 9.05-1.225 15.054 15.054 0 0 0 6.68-6.19 14.927 14.927 0 0 0-2.459-17.952A15.126 15.126 0 0 0 16.671.083Zm-.49 22.857a8.09 8.09 0 0 1-4.849-.863 8.024 8.024 0 0 1-3.436-3.51 7.96 7.96 0 0 1-.735-4.842 7.985 7.985 0 0 1 2.242-4.361 8.065 8.065 0 0 1 4.378-2.246 8.092 8.092 0 0 1 4.874.71A8.028 8.028 0 0 1 22.2 11.23a7.96 7.96 0 0 1-1.391 9.426 8.067 8.067 0 0 1-4.627 2.284ZM38.174.67a3.537 3.537 0 0 0-2.73 1.299 3.492 3.492 0 0 0-.707 2.924c.183.801.638 1.515 1.288 2.021.65.507 1.455.776 2.28.762h9.798L32.856 27.729a.993.993 0 0 0 .267 1.455c.16.098.344.15.531.148h23.913a3.611 3.611 0 0 0 2.28-.759 3.573 3.573 0 0 0 1.289-2.016 3.48 3.48 0 0 0-.708-2.924 3.518 3.518 0 0 0-2.727-1.3H45.766l15.228-20.04a1.006 1.006 0 0 0-.267-1.469 1.02 1.02 0 0 0-.535-.154h-22.02Zm95.555.087a3.576 3.576 0 0 0-1.995 1.275 3.541 3.541 0 0 0-.752 2.237v11.654L111.988.896a1.007 1.007 0 0 0-1.491.249 1 1 0 0 0-.148.54v24.062a3.535 3.535 0 0 0 .752 2.236 3.573 3.573 0 0 0 1.994 1.276 3.536 3.536 0 0 0 2.96-.691 3.474 3.474 0 0 0 1.311-2.728V14.087l18.996 15.026a1.003 1.003 0 0 0 1.638-.788V4.175a3.486 3.486 0 0 0-1.312-2.727 3.528 3.528 0 0 0-2.96-.691ZM84.272 7.005c8.034 0 14.037 4.221 14.037 7.996 0 3.775-6.003 7.997-14.037 7.997S70.235 18.776 70.235 15c0-3.775 6.003-7.996 14.037-7.996Zm0-6.999c-11.629 0-21.057 6.713-21.057 14.995S72.64 29.996 84.27 29.996c11.629 0 21.055-6.713 21.055-14.995S95.895.006 84.272.006Z" clip-rule="evenodd"/></svg>