<svg xmlns="http://www.w3.org/2000/svg" width="24" height="24" fill="none"><path fill="#6E7191" d="M1.687 1.687C0 3.374 0 6.09 0 11.52v.96c0 5.43 0 8.146 1.687 9.833C3.374 24 6.09 24 11.52 24h.96c5.43 0 8.146 0 9.833-1.687C24 20.626 24 17.911 24 12.48v-.96c0-5.43 0-8.146-1.687-9.833C20.626 0 17.911 0 12.48 0h-.96C6.09 0 3.374 0 1.687 1.687ZM4.05 7.3h2.74c.09 4.58 2.11 6.52 3.71 6.92V7.3h2.58v3.95c1.58-.17 3.24-1.97 3.8-3.95h2.58a7.622 7.622 0 0 1-3.51 4.98 7.895 7.895 0 0 1 4.11 5.01h-2.84a4.937 4.937 0 0 0-4.14-3.57v3.57h-.31c-5.47 0-8.59-3.75-8.72-9.99Z"/></svg>